<?xml version="1.0" encoding="UTF-8"?>
<svg
    width="10px"
    height="18px"
    viewBox="0 0 10 18"
    version="1.1"
    xmlns="http://www.w3.org/2000/svg"
    xmlns:xlink="http://www.w3.org/1999/xlink">
    <title>facebook-f</title>
    <g id="Ostatic" stroke="none" stroke-width="1" fill="none" fill-rule="evenodd">
        <g id="Desktop" transform="translate(-194.000000, -8117.000000)" fill="#0E6ADB">
            <g id="Footer" transform="translate(156.000000, 7925.000000)">
                <g id="Group" transform="translate(12.000000, 0.000000)">
                    <g id="facebook" transform="translate(9.000000, 178.000000)">
                        <path
                            d="M19.966,31.731 L19.966,24.178 L17.436,24.178 L17.436,21.178 L19.966,21.178 L19.966,18.812 C19.8598932,17.7497102 20.2284902,16.694806 20.97309,15.9297639 C21.7176898,15.1647219 22.7622266,14.7676961 23.827,14.845 C24.6005912,14.8424549 25.3737436,14.8821807 26.143,14.964 L26.143,17.645 L24.553,17.645 C23.306,17.645 23.066,18.245 23.066,19.109 L23.066,21.177 L25.879,21.177 L25.493,24.177 L23.066,24.177 L23.066,31.729"
                            id="facebook-f"></path>
                    </g>
                </g>
            </g>
        </g>
    </g>
</svg>