<?xml version="1.0" encoding="UTF-8"?>
<svg width="16px" height="17px" viewBox="0 0 16 17" version="1.1" xmlns="http://www.w3.org/2000/svg" xmlns:xlink="http://www.w3.org/1999/xlink">
    <title>15</title>
    <g id="Ostatic" stroke="none" stroke-width="1" fill="none" fill-rule="evenodd" opacity="0.5">
        <g id="Desktop" transform="translate(-641.000000, -34.000000)" fill-rule="nonzero" stroke="#6B778E">
            <g id="Search-Bar" transform="translate(324.000000, 20.000000)">
                <g id="15" transform="translate(317.000000, 14.000000)">
                    <g id="Group_3128" transform="translate(9.025000, 10.035000)">
                        <path d="M5.34321794,5.12081968 C5.26924536,5.19288548 5.17028599,5.23377256 5.06688386,5.235 C4.96116538,5.23564023 4.85982458,5.19293546 4.78660215,5.11688268 L0.46,0.750747283 C0.498374767,0.726705628 0.535284265,0.700412676 0.570533632,0.67200724 C0.743323047,0.538899251 0.905649433,0.392803955 1.05609208,0.235 L5.34716557,4.56570238 C5.49913793,4.72034061 5.49737427,4.96834672 5.34321794,5.12081968 L5.34321794,5.12081968 Z" id="Path_4274"></path>
                    </g>
                    <g id="Group_3130" transform="translate(0.025000, 0.035000)">
                        <path d="M10.79,2.88 C10.6354966,2.66402375 10.4667905,2.45856974 10.285,2.265 C10.23,2.205 10.17,2.145 10.115,2.09 C9.06069846,1.04768099 7.63755824,0.463690369 6.155,0.464997802 C2.9998273,0.487020881 0.458374644,3.05979426 0.474918895,6.215 C0.475322898,6.70388526 0.535776771,7.19087478 0.655,7.665 C1.18771119,9.76457008 2.86294148,11.3816999 4.98,11.84 C5.13189331,11.874371 5.28542105,11.9010715 5.44,11.92 C5.6771491,11.9500291 5.91595724,11.9649978 6.155,11.9649978 C7.3428932,11.9668648 8.50050723,11.5903337 9.46,10.89 C9.50860482,10.8594671 9.55535376,10.826075 9.6,10.79 C9.81885211,10.6209526 10.0244519,10.4354113 10.215,10.235 C11.2653668,9.16157238 11.849382,7.71680863 11.8401113,6.215 C11.8425218,5.02161794 11.4757511,3.85668445 10.79,2.88 L10.79,2.88 Z M8.99,9.995 C8.18011398,10.6263622 7.18190078,10.9679025 6.155,10.9650183 C5.95768867,10.9640645 5.76063206,10.9507047 5.565,10.925 C5.44,10.91 5.31,10.89 5.19,10.865 C3.44565115,10.4802348 2.06673484,9.14579967 1.625,7.415 C1.52530574,7.02279164 1.47490475,6.61968054 1.475,6.215 C1.45863843,3.6121822 3.55222614,1.48728015 6.155,1.4649993 C7.37731919,1.46433027 8.55056414,1.94584581 9.42,2.805 C9.465,2.85 9.51,2.9 9.555,2.945 C9.71069398,3.11303588 9.85438155,3.29180995 9.985,3.48 C11.4361227,5.57130119 10.9991973,8.43217439 8.99,9.995 L8.99,9.995 Z" id="Path_4275"></path>
                    </g>
                </g>
            </g>
        </g>
    </g>
</svg>