<?xml version="1.0" encoding="UTF-8"?>
<svg width="19px" height="16px" viewBox="0 0 19 16" version="1.1" xmlns="http://www.w3.org/2000/svg" xmlns:xlink="http://www.w3.org/1999/xlink">
    <title>twitter</title>
    <g id="Ostatic" stroke="none" stroke-width="1" fill="none" fill-rule="evenodd">
        <g id="Desktop" transform="translate(-250.000000, -8118.000000)" fill="#0E6ADB">
            <g id="Footer" transform="translate(156.000000, 7925.000000)">
                <g id="Group" transform="translate(12.000000, 0.000000)">
                    <g id="social-network-icons" transform="translate(9.000000, 178.000000)">
                        <g id="twitter" transform="translate(60.000000, 0.000000)">
                            <g id="Group_13" transform="translate(13.786000, 15.687873)">
                                <path d="M15.876,3.58212698 C15.887,3.73912698 15.887,3.89612698 15.887,4.05412698 C15.9057959,6.79634962 14.8247608,9.43170822 12.885671,11.370798 C10.9465812,13.3098878 8.31122264,14.3909229 5.569,14.372127 C3.5945983,14.3772604 1.66074667,13.8119326 0,12.744127 C0.290872038,12.776204 0.583372149,12.7912297 0.876,12.789127 C2.50739674,12.7928378 4.09253663,12.2471974 5.376,11.240127 C3.82503667,11.2109943 2.46366879,10.2003122 1.987,8.72412698 C2.21360581,8.75994609 2.44258538,8.77866558 2.672,8.78012698 C2.99390122,8.77931737 3.31442046,8.73799256 3.626,8.65712698 C1.93431452,8.31448966 0.718437387,6.82716283 0.719,5.10112698 L0.719,5.05312698 C1.22146937,5.33343006 1.78305854,5.49104509 2.358,5.51312698 C0.760328781,4.44758471 0.2682613,2.32244911 1.235,0.663126976 C3.07722247,2.93070945 5.79516142,4.31003257 8.713,4.45812698 C8.65472739,4.18492294 8.62457026,3.90647206 8.623,3.62712698 C8.62423264,2.13847215 9.53424164,0.801466141 10.9186782,0.254264108 C12.3031148,-0.292937926 13.8813145,0.0605973516 14.9,1.14612698 C15.711593,0.989460216 16.4898189,0.693057665 17.2,0.270126976 C16.9299537,1.10866396 16.3631616,1.81982086 15.606,2.27012698 C16.3260713,2.18824369 17.0298521,1.99915316 17.694,1.70912698 C17.1973839,2.43194048 16.5824277,3.06582878 15.875,3.58412698 L15.876,3.58212698 Z" id="twitter"></path>
                            </g>
                        </g>
                    </g>
                </g>
            </g>
        </g>
    </g>
</svg>