<?xml version="1.0" encoding="UTF-8"?>
<svg width="19px" height="13px" viewBox="0 0 19 13" version="1.1" xmlns="http://www.w3.org/2000/svg" xmlns:xlink="http://www.w3.org/1999/xlink">
    <title>youtube</title>
    <g id="Ostatic" stroke="none" stroke-width="1" fill="none" fill-rule="evenodd">
        <g id="Desktop" transform="translate(-370.000000, -8119.000000)" fill="#0E6ADB" fill-rule="nonzero">
            <g id="Footer" transform="translate(156.000000, 7925.000000)">
                <g id="Group" transform="translate(12.000000, 0.000000)">
                    <g id="social-network-icons" transform="translate(9.000000, 178.000000)">
                        <g id="youtube" transform="translate(180.000000, 0.000000)">
                            <g id="Group_16" transform="translate(13.827524, 16.360175)">
                                <path d="M16.9624763,1.91182507 C16.7633076,1.16141745 16.1795722,0.573871726 15.4304763,0.369825068 C13.1849753,0.0991732266 10.9240691,-0.0230920916 8.66247627,0.00382506831 C6.40092742,-0.0237556597 4.14002137,0.0978415336 1.89447627,0.367825068 C1.1448713,0.572229284 0.561025679,1.16064811 0.36247627,1.91182507 C0.112564222,3.29766825 -0.00861869998,4.70365795 0.000476269929,6.11182507 C-0.00861869998,7.51999219 0.112564222,8.92598189 0.36247627,10.3118251 C0.563263915,11.056151 1.14821079,11.6353706 1.89447627,11.8288251 C4.14002137,12.0988086 6.40092742,12.2204058 8.66247627,12.1928251 C10.9240251,12.2204058 13.1849312,12.0988086 15.4304763,11.8288251 C16.1767418,11.6353706 16.7616886,11.056151 16.9624763,10.3118251 C17.2123883,8.92598189 17.3335712,7.51999219 17.3244763,6.11182507 C17.3335712,4.70365795 17.2123883,3.29766825 16.9624763,1.91182507 L16.9624763,1.91182507 Z M6.89047627,8.68282507 L6.89047627,3.53082507 L11.4154763,6.11182507 L6.89047627,8.68282507 Z" id="youtube"></path>
                            </g>
                        </g>
                    </g>
                </g>
            </g>
        </g>
    </g>
</svg>